<mxfile host="app.diagrams.net" modified="2023-09-20T22:12:52.983Z" agent="Mozilla/5.0 (Windows NT 10.0; Win64; x64) AppleWebKit/537.36 (KHTML, like Gecko) Chrome/116.0.0.0 Safari/537.36" etag="sJDF0mMnPBsNiCmaWhEh" version="21.7.5" type="device">
  <diagram id="R2lEEEUBdFMjLlhIrx00" name="Page-1">
    <mxGraphModel dx="1554" dy="413" grid="1" gridSize="10" guides="1" tooltips="1" connect="1" arrows="1" fold="1" page="1" pageScale="1" pageWidth="850" pageHeight="1100" math="0" shadow="0" extFonts="Permanent Marker^https://fonts.googleapis.com/css?family=Permanent+Marker">
      <root>
        <mxCell id="0" />
        <mxCell id="1" parent="0" />
        <mxCell id="MfReqdxKw3DPo1cjwX6--1" value="Lineas Metro" style="whiteSpace=wrap;html=1;align=center;" parent="1" vertex="1">
          <mxGeometry x="170" y="620" width="100" height="40" as="geometry" />
        </mxCell>
        <mxCell id="MfReqdxKw3DPo1cjwX6--2" value="Trenes" style="whiteSpace=wrap;html=1;align=center;" parent="1" vertex="1">
          <mxGeometry x="-40" y="620" width="100" height="40" as="geometry" />
        </mxCell>
        <mxCell id="MfReqdxKw3DPo1cjwX6--4" value="Estaciones" style="shape=ext;margin=3;double=1;whiteSpace=wrap;html=1;align=center;" parent="1" vertex="1">
          <mxGeometry x="170" y="740" width="100" height="40" as="geometry" />
        </mxCell>
        <mxCell id="MfReqdxKw3DPo1cjwX6--5" value="Ubicaciones" style="shape=ext;margin=3;double=1;whiteSpace=wrap;html=1;align=center;" parent="1" vertex="1">
          <mxGeometry x="360" y="740" width="100" height="40" as="geometry" />
        </mxCell>
        <mxCell id="MfReqdxKw3DPo1cjwX6--6" value="La entidades débiles solo pueden existir sí existe y está relacionada a una entidad fuerte o entidad normal" style="shape=callout;whiteSpace=wrap;html=1;perimeter=calloutPerimeter;" parent="1" vertex="1">
          <mxGeometry x="232.5" y="150" width="135" height="100" as="geometry" />
        </mxCell>
        <mxCell id="MfReqdxKw3DPo1cjwX6--9" value="" style="endArrow=none;html=1;rounded=0;" parent="1" source="MfReqdxKw3DPo1cjwX6--4" target="MfReqdxKw3DPo1cjwX6--5" edge="1">
          <mxGeometry relative="1" as="geometry">
            <mxPoint x="250" y="650" as="sourcePoint" />
            <mxPoint x="320" y="760" as="targetPoint" />
          </mxGeometry>
        </mxCell>
        <mxCell id="8m9B6TmlXxqUnuHm12a8-2" value="" style="endArrow=none;html=1;rounded=0;" parent="1" source="MfReqdxKw3DPo1cjwX6--2" target="MfReqdxKw3DPo1cjwX6--1" edge="1">
          <mxGeometry width="50" height="50" relative="1" as="geometry">
            <mxPoint x="110" y="639.52" as="sourcePoint" />
            <mxPoint x="190" y="639.52" as="targetPoint" />
          </mxGeometry>
        </mxCell>
        <mxCell id="8m9B6TmlXxqUnuHm12a8-4" value="" style="endArrow=none;html=1;rounded=0;entryX=0.5;entryY=0;entryDx=0;entryDy=0;" parent="1" source="MfReqdxKw3DPo1cjwX6--1" target="MfReqdxKw3DPo1cjwX6--4" edge="1">
          <mxGeometry relative="1" as="geometry">
            <mxPoint x="430" y="550" as="sourcePoint" />
            <mxPoint x="220" y="720" as="targetPoint" />
          </mxGeometry>
        </mxCell>
        <mxCell id="8m9B6TmlXxqUnuHm12a8-5" value="Entidad" style="whiteSpace=wrap;html=1;align=center;" parent="1" vertex="1">
          <mxGeometry x="90" y="250" width="100" height="40" as="geometry" />
        </mxCell>
        <mxCell id="8m9B6TmlXxqUnuHm12a8-7" value="Entidades Debiles" style="shape=ext;margin=3;double=1;whiteSpace=wrap;html=1;align=center;" parent="1" vertex="1">
          <mxGeometry x="250" y="250" width="100" height="40" as="geometry" />
        </mxCell>
        <mxCell id="8m9B6TmlXxqUnuHm12a8-8" value="Relaciones" style="rhombus;whiteSpace=wrap;html=1;" parent="1" vertex="1">
          <mxGeometry x="385" y="250" width="100" height="40" as="geometry" />
        </mxCell>
        <mxCell id="8m9B6TmlXxqUnuHm12a8-11" value="Lineas Metro" style="whiteSpace=wrap;html=1;align=center;" parent="1" vertex="1">
          <mxGeometry x="290" y="1010" width="100" height="40" as="geometry" />
        </mxCell>
        <mxCell id="8m9B6TmlXxqUnuHm12a8-12" value="Trenes" style="whiteSpace=wrap;html=1;align=center;" parent="1" vertex="1">
          <mxGeometry x="-70" y="1010" width="100" height="40" as="geometry" />
        </mxCell>
        <mxCell id="8m9B6TmlXxqUnuHm12a8-13" value="Estaciones" style="shape=ext;margin=3;double=1;whiteSpace=wrap;html=1;align=center;" parent="1" vertex="1">
          <mxGeometry x="290" y="1210" width="100" height="40" as="geometry" />
        </mxCell>
        <mxCell id="8m9B6TmlXxqUnuHm12a8-14" value="Ubicaciones" style="shape=ext;margin=3;double=1;whiteSpace=wrap;html=1;align=center;" parent="1" vertex="1">
          <mxGeometry x="590" y="1210" width="100" height="40" as="geometry" />
        </mxCell>
        <mxCell id="8m9B6TmlXxqUnuHm12a8-15" value="" style="endArrow=none;html=1;rounded=0;" parent="1" source="8m9B6TmlXxqUnuHm12a8-18" target="8m9B6TmlXxqUnuHm12a8-11" edge="1">
          <mxGeometry width="50" height="50" relative="1" as="geometry">
            <mxPoint x="30" y="970" as="sourcePoint" />
            <mxPoint x="290" y="970" as="targetPoint" />
          </mxGeometry>
        </mxCell>
        <mxCell id="8m9B6TmlXxqUnuHm12a8-16" value="" style="endArrow=none;html=1;rounded=0;" parent="1" source="8m9B6TmlXxqUnuHm12a8-13" target="8m9B6TmlXxqUnuHm12a8-22" edge="1">
          <mxGeometry relative="1" as="geometry">
            <mxPoint x="370" y="1120" as="sourcePoint" />
            <mxPoint x="530" y="1120" as="targetPoint" />
          </mxGeometry>
        </mxCell>
        <mxCell id="8m9B6TmlXxqUnuHm12a8-17" value="" style="endArrow=none;html=1;rounded=0;" parent="1" source="8m9B6TmlXxqUnuHm12a8-20" target="8m9B6TmlXxqUnuHm12a8-13" edge="1">
          <mxGeometry relative="1" as="geometry">
            <mxPoint x="540" y="930" as="sourcePoint" />
            <mxPoint x="540" y="1090" as="targetPoint" />
          </mxGeometry>
        </mxCell>
        <mxCell id="8m9B6TmlXxqUnuHm12a8-18" value="está" style="rhombus;whiteSpace=wrap;html=1;" parent="1" vertex="1">
          <mxGeometry x="110" y="1010" width="100" height="40" as="geometry" />
        </mxCell>
        <mxCell id="8m9B6TmlXxqUnuHm12a8-19" value="" style="endArrow=none;html=1;rounded=0;" parent="1" source="8m9B6TmlXxqUnuHm12a8-12" target="8m9B6TmlXxqUnuHm12a8-18" edge="1">
          <mxGeometry width="50" height="50" relative="1" as="geometry">
            <mxPoint x="40" y="980" as="sourcePoint" />
            <mxPoint x="300" y="980" as="targetPoint" />
          </mxGeometry>
        </mxCell>
        <mxCell id="8m9B6TmlXxqUnuHm12a8-20" value="tiene" style="rhombus;whiteSpace=wrap;html=1;" parent="1" vertex="1">
          <mxGeometry x="290" y="1110" width="100" height="40" as="geometry" />
        </mxCell>
        <mxCell id="8m9B6TmlXxqUnuHm12a8-21" value="" style="endArrow=none;html=1;rounded=0;" parent="1" source="8m9B6TmlXxqUnuHm12a8-11" target="8m9B6TmlXxqUnuHm12a8-20" edge="1">
          <mxGeometry relative="1" as="geometry">
            <mxPoint x="550" y="940" as="sourcePoint" />
            <mxPoint x="550" y="1100" as="targetPoint" />
          </mxGeometry>
        </mxCell>
        <mxCell id="8m9B6TmlXxqUnuHm12a8-22" value="tiene" style="rhombus;whiteSpace=wrap;html=1;" parent="1" vertex="1">
          <mxGeometry x="440" y="1210" width="100" height="40" as="geometry" />
        </mxCell>
        <mxCell id="8m9B6TmlXxqUnuHm12a8-23" value="" style="endArrow=none;html=1;rounded=0;" parent="1" source="8m9B6TmlXxqUnuHm12a8-14" target="8m9B6TmlXxqUnuHm12a8-22" edge="1">
          <mxGeometry relative="1" as="geometry">
            <mxPoint x="400" y="1240" as="sourcePoint" />
            <mxPoint x="450" y="1240" as="targetPoint" />
          </mxGeometry>
        </mxCell>
        <mxCell id="8m9B6TmlXxqUnuHm12a8-24" value="&lt;font style=&quot;font-size: 24px;&quot;&gt;Paso 1: Establecer las entidades&lt;/font&gt;" style="text;html=1;strokeColor=none;fillColor=none;align=center;verticalAlign=middle;whiteSpace=wrap;rounded=0;" parent="1" vertex="1">
          <mxGeometry x="-50" y="520" width="360" height="80" as="geometry" />
        </mxCell>
        <mxCell id="8m9B6TmlXxqUnuHm12a8-25" value="&lt;font style=&quot;font-size: 24px;&quot;&gt;Paso 2: Establecer las relaciones&lt;/font&gt;" style="text;html=1;strokeColor=none;fillColor=none;align=center;verticalAlign=middle;whiteSpace=wrap;rounded=0;" parent="1" vertex="1">
          <mxGeometry x="-80" y="920" width="460" height="80" as="geometry" />
        </mxCell>
        <mxCell id="8m9B6TmlXxqUnuHm12a8-26" value="Conductores" style="whiteSpace=wrap;html=1;align=center;" parent="1" vertex="1">
          <mxGeometry x="-70" y="1210" width="100" height="40" as="geometry" />
        </mxCell>
        <mxCell id="8m9B6TmlXxqUnuHm12a8-27" value="Los conductores están en los trenes, es un ejemplo, reto, relacionarla" style="ellipse;shape=cloud;whiteSpace=wrap;html=1;" parent="1" vertex="1">
          <mxGeometry x="-510" y="1050" width="240" height="180" as="geometry" />
        </mxCell>
        <mxCell id="8m9B6TmlXxqUnuHm12a8-28" value="Conduce" style="rhombus;whiteSpace=wrap;html=1;" parent="1" vertex="1">
          <mxGeometry x="-70" y="1110" width="100" height="40" as="geometry" />
        </mxCell>
        <mxCell id="8m9B6TmlXxqUnuHm12a8-29" value="" style="endArrow=none;html=1;rounded=0;" parent="1" source="8m9B6TmlXxqUnuHm12a8-12" target="8m9B6TmlXxqUnuHm12a8-28" edge="1">
          <mxGeometry width="50" height="50" relative="1" as="geometry">
            <mxPoint x="40" y="1040" as="sourcePoint" />
            <mxPoint x="120" y="1040" as="targetPoint" />
          </mxGeometry>
        </mxCell>
        <mxCell id="8m9B6TmlXxqUnuHm12a8-30" value="" style="endArrow=none;html=1;rounded=0;exitX=0.5;exitY=0;exitDx=0;exitDy=0;" parent="1" source="8m9B6TmlXxqUnuHm12a8-26" target="8m9B6TmlXxqUnuHm12a8-28" edge="1">
          <mxGeometry width="50" height="50" relative="1" as="geometry">
            <mxPoint x="-10" y="1060" as="sourcePoint" />
            <mxPoint x="-10" y="1120" as="targetPoint" />
          </mxGeometry>
        </mxCell>
        <mxCell id="8m9B6TmlXxqUnuHm12a8-33" value="Lineas Metro" style="whiteSpace=wrap;html=1;align=center;" parent="1" vertex="1">
          <mxGeometry x="260" y="1540" width="100" height="40" as="geometry" />
        </mxCell>
        <mxCell id="8m9B6TmlXxqUnuHm12a8-34" value="Trenes" style="whiteSpace=wrap;html=1;align=center;" parent="1" vertex="1">
          <mxGeometry x="-100" y="1540" width="100" height="40" as="geometry" />
        </mxCell>
        <mxCell id="8m9B6TmlXxqUnuHm12a8-35" value="Estaciones" style="shape=ext;margin=3;double=1;whiteSpace=wrap;html=1;align=center;" parent="1" vertex="1">
          <mxGeometry x="260" y="1740" width="100" height="40" as="geometry" />
        </mxCell>
        <mxCell id="8m9B6TmlXxqUnuHm12a8-36" value="Ubicaciones" style="shape=ext;margin=3;double=1;whiteSpace=wrap;html=1;align=center;" parent="1" vertex="1">
          <mxGeometry x="550" y="1740" width="100" height="40" as="geometry" />
        </mxCell>
        <mxCell id="8m9B6TmlXxqUnuHm12a8-37" value="" style="endArrow=none;html=1;rounded=0;" parent="1" source="8m9B6TmlXxqUnuHm12a8-40" target="8m9B6TmlXxqUnuHm12a8-33" edge="1">
          <mxGeometry width="50" height="50" relative="1" as="geometry">
            <mxPoint y="1500" as="sourcePoint" />
            <mxPoint x="260" y="1500" as="targetPoint" />
          </mxGeometry>
        </mxCell>
        <mxCell id="8m9B6TmlXxqUnuHm12a8-38" value="" style="endArrow=none;html=1;rounded=0;" parent="1" source="8m9B6TmlXxqUnuHm12a8-35" target="8m9B6TmlXxqUnuHm12a8-44" edge="1">
          <mxGeometry relative="1" as="geometry">
            <mxPoint x="340" y="1650" as="sourcePoint" />
            <mxPoint x="500" y="1650" as="targetPoint" />
          </mxGeometry>
        </mxCell>
        <mxCell id="8m9B6TmlXxqUnuHm12a8-39" value="" style="endArrow=none;html=1;rounded=0;" parent="1" source="8m9B6TmlXxqUnuHm12a8-42" target="8m9B6TmlXxqUnuHm12a8-35" edge="1">
          <mxGeometry relative="1" as="geometry">
            <mxPoint x="510" y="1460" as="sourcePoint" />
            <mxPoint x="510" y="1620" as="targetPoint" />
          </mxGeometry>
        </mxCell>
        <mxCell id="8m9B6TmlXxqUnuHm12a8-40" value="está" style="rhombus;whiteSpace=wrap;html=1;" parent="1" vertex="1">
          <mxGeometry x="80" y="1540" width="100" height="40" as="geometry" />
        </mxCell>
        <mxCell id="8m9B6TmlXxqUnuHm12a8-41" value="" style="endArrow=none;html=1;rounded=0;" parent="1" source="8m9B6TmlXxqUnuHm12a8-34" target="8m9B6TmlXxqUnuHm12a8-40" edge="1">
          <mxGeometry width="50" height="50" relative="1" as="geometry">
            <mxPoint x="10" y="1510" as="sourcePoint" />
            <mxPoint x="270" y="1510" as="targetPoint" />
          </mxGeometry>
        </mxCell>
        <mxCell id="8m9B6TmlXxqUnuHm12a8-42" value="tiene" style="rhombus;whiteSpace=wrap;html=1;" parent="1" vertex="1">
          <mxGeometry x="260" y="1640" width="100" height="40" as="geometry" />
        </mxCell>
        <mxCell id="8m9B6TmlXxqUnuHm12a8-43" value="" style="endArrow=none;html=1;rounded=0;" parent="1" source="8m9B6TmlXxqUnuHm12a8-33" target="8m9B6TmlXxqUnuHm12a8-42" edge="1">
          <mxGeometry relative="1" as="geometry">
            <mxPoint x="520" y="1470" as="sourcePoint" />
            <mxPoint x="520" y="1630" as="targetPoint" />
          </mxGeometry>
        </mxCell>
        <mxCell id="8m9B6TmlXxqUnuHm12a8-44" value="tiene" style="rhombus;whiteSpace=wrap;html=1;" parent="1" vertex="1">
          <mxGeometry x="410" y="1740" width="90" height="40" as="geometry" />
        </mxCell>
        <mxCell id="8m9B6TmlXxqUnuHm12a8-45" value="" style="endArrow=none;html=1;rounded=0;" parent="1" source="8m9B6TmlXxqUnuHm12a8-36" target="8m9B6TmlXxqUnuHm12a8-44" edge="1">
          <mxGeometry relative="1" as="geometry">
            <mxPoint x="370" y="1770" as="sourcePoint" />
            <mxPoint x="420" y="1770" as="targetPoint" />
          </mxGeometry>
        </mxCell>
        <mxCell id="8m9B6TmlXxqUnuHm12a8-46" value="&lt;font style=&quot;font-size: 24px;&quot;&gt;Paso 3: Establecer el tipo de relación&lt;/font&gt;" style="text;html=1;strokeColor=none;fillColor=none;align=center;verticalAlign=middle;whiteSpace=wrap;rounded=0;" parent="1" vertex="1">
          <mxGeometry x="-110" y="1450" width="460" height="80" as="geometry" />
        </mxCell>
        <mxCell id="8m9B6TmlXxqUnuHm12a8-47" value="Conductores" style="whiteSpace=wrap;html=1;align=center;" parent="1" vertex="1">
          <mxGeometry x="-100" y="1740" width="100" height="40" as="geometry" />
        </mxCell>
        <mxCell id="8m9B6TmlXxqUnuHm12a8-48" value="Conduce" style="rhombus;whiteSpace=wrap;html=1;" parent="1" vertex="1">
          <mxGeometry x="-100" y="1640" width="100" height="40" as="geometry" />
        </mxCell>
        <mxCell id="8m9B6TmlXxqUnuHm12a8-49" value="" style="endArrow=none;html=1;rounded=0;" parent="1" source="8m9B6TmlXxqUnuHm12a8-34" target="8m9B6TmlXxqUnuHm12a8-48" edge="1">
          <mxGeometry width="50" height="50" relative="1" as="geometry">
            <mxPoint x="10" y="1570" as="sourcePoint" />
            <mxPoint x="90" y="1570" as="targetPoint" />
          </mxGeometry>
        </mxCell>
        <mxCell id="8m9B6TmlXxqUnuHm12a8-50" value="" style="endArrow=none;html=1;rounded=0;exitX=0.5;exitY=0;exitDx=0;exitDy=0;" parent="1" source="8m9B6TmlXxqUnuHm12a8-47" target="8m9B6TmlXxqUnuHm12a8-48" edge="1">
          <mxGeometry width="50" height="50" relative="1" as="geometry">
            <mxPoint x="-40" y="1590" as="sourcePoint" />
            <mxPoint x="-40" y="1650" as="targetPoint" />
          </mxGeometry>
        </mxCell>
        <mxCell id="8m9B6TmlXxqUnuHm12a8-51" value="&lt;b&gt;N:1&lt;/b&gt;" style="text;html=1;strokeColor=none;fillColor=none;align=center;verticalAlign=middle;whiteSpace=wrap;rounded=0;" parent="1" vertex="1">
          <mxGeometry x="140" y="1530" width="60" height="30" as="geometry" />
        </mxCell>
        <mxCell id="8m9B6TmlXxqUnuHm12a8-52" value="&lt;b&gt;1:1&lt;/b&gt;" style="text;html=1;strokeColor=none;fillColor=none;align=center;verticalAlign=middle;whiteSpace=wrap;rounded=0;" parent="1" vertex="1">
          <mxGeometry x="460" y="1730" width="60" height="30" as="geometry" />
        </mxCell>
        <mxCell id="8m9B6TmlXxqUnuHm12a8-53" value="&lt;b&gt;N:N&lt;/b&gt;" style="text;html=1;strokeColor=none;fillColor=none;align=center;verticalAlign=middle;whiteSpace=wrap;rounded=0;" parent="1" vertex="1">
          <mxGeometry x="320" y="1630" width="60" height="30" as="geometry" />
        </mxCell>
        <mxCell id="8m9B6TmlXxqUnuHm12a8-55" value="&lt;b&gt;N:N&lt;/b&gt;" style="text;html=1;strokeColor=none;fillColor=none;align=center;verticalAlign=middle;whiteSpace=wrap;rounded=0;" parent="1" vertex="1">
          <mxGeometry x="-40" y="1630" width="60" height="30" as="geometry" />
        </mxCell>
      </root>
    </mxGraphModel>
  </diagram>
</mxfile>
